<?xml version="1.0" encoding="UTF-8"?>
<svg width="162px" height="157px" viewBox="0 0 162 157" version="1.1" xmlns="http://www.w3.org/2000/svg" xmlns:xlink="http://www.w3.org/1999/xlink">
    <!-- Generator: Sketch 47.1 (45422) - http://www.bohemiancoding.com/sketch -->
    <title>bonsai-logomark</title>
    <desc>Created with Sketch.</desc>
    <defs></defs>
    <g id="Page-1" stroke="none" stroke-width="1" fill="none" fill-rule="evenodd">
        <g id="bonsai-logomark" fill-rule="nonzero">
            <path d="M33.63,28.31 C34.1231466,28.3045203 34.5200304,27.9031771 34.52,27.41 L34.52,22.08 C34.5199696,21.5868229 34.9168534,21.1854797 35.41,21.18 L56.78,21.18 C57.2731466,21.1745203 57.6700304,20.7731771 57.67,20.28 L57.67,19.35 C57.6700304,18.8568229 57.2731466,18.4554797 56.78,18.45 L46.96,18.45 C46.4707237,18.4445931 46.0754069,18.0492763 46.07,17.56 L46.07,14.9 C46.0699696,14.4068229 46.4668534,14.0054797 46.96,14 L61.6,14 C62.0931466,14.0054797 62.4900304,14.4068229 62.49,14.9 L62.49,24.78 C62.4900304,25.2731771 62.0931466,25.6745203 61.6,25.68 L51.78,25.68 C51.2868534,25.6854797 50.8899696,26.0868229 50.89,26.58 L50.89,34.58 C50.8899696,35.0731771 51.2868534,35.4745203 51.78,35.48 L65.4,35.48 C65.8931466,35.4854797 66.2900304,35.8868229 66.29,36.38 L66.29,39.07 C66.2900304,39.5631771 65.8931466,39.9645203 65.4,39.97 L43.17,39.97 C42.6768534,39.9645203 42.2799696,39.5631771 42.28,39.07 L42.28,36.4 C42.2799696,35.9068229 42.6768534,35.5054797 43.17,35.5 L45.17,35.5 C45.6631466,35.4945203 46.0600304,35.0931771 46.06,34.6 L46.06,26.6 C46.0600304,26.1068229 45.6631466,25.7054797 45.17,25.7 L40.24,25.7 C39.7468534,25.7054797 39.3499696,26.1068229 39.35,26.6 L39.35,31.9 C39.3445931,32.3892763 38.9492763,32.7845931 38.46,32.79 L23.89,32.79 C23.4007237,32.7845931 23.0054069,32.3892763 23,31.9 L23,29.2 C22.9999696,28.7068229 23.3968534,28.3054797 23.89,28.3 L33.63,28.31 Z" id="Fill-1" fill="#52A646"></path>
            <path d="M91.16,34.31 C91.1599696,34.8031771 91.5568534,35.2045203 92.05,35.21 L112.46,35.21 C112.953147,35.2045203 113.35003,34.8031771 113.35,34.31 L113.35,33.38 C113.35003,32.8868229 112.953147,32.4854797 112.46,32.48 L106.58,32.48 C106.088467,32.48 105.69,32.0815334 105.69,31.59 L105.69,28.9 C105.68997,28.4068229 106.086853,28.0054797 106.58,28 L117.27,28 C117.763147,28.0054797 118.16003,28.4068229 118.16,28.9 L118.16,38.78 C118.16003,39.2731771 117.763147,39.6745203 117.27,39.68 L107.52,39.68 C107.026853,39.6854797 106.62997,40.0868229 106.63,40.58 L106.63,41.43 C106.62997,41.9231771 107.026853,42.3245203 107.52,42.33 L124.93,42.33 C125.423147,42.3354797 125.82003,42.7368229 125.82,43.23 L125.82,55.83 C125.81997,56.3231771 126.216853,56.7245203 126.71,56.73 L134.56,56.73 C135.049276,56.7354069 135.444593,57.1307237 135.45,57.62 L135.45,60.23 C135.45003,60.7231771 135.053147,61.1245203 134.56,61.13 L122,61.13 C121.506853,61.1245203 121.10997,60.7231771 121.11,60.23 L121.11,47.69 C121.11003,47.1968229 120.713147,46.7954797 120.22,46.79 L102.72,46.79 C102.226853,46.7845203 101.82997,46.3831771 101.83,45.89 L101.83,40.6 C101.83003,40.1068229 101.433147,39.7054797 100.94,39.7 L99.81,39.7 C99.3168534,39.7054797 98.9199696,40.1068229 98.92,40.6 L98.92,45.9 C98.9200304,46.3931771 98.5231466,46.7945203 98.03,46.8 L95.03,46.8 C94.5368534,46.7945203 94.1399696,46.3931771 94.14,45.9 L94.14,40.6 C94.1400304,40.1068229 93.7431466,39.7054797 93.25,39.7 L87.38,39.7 C86.8868534,39.6945203 86.4899696,39.2931771 86.49,38.8 L86.49,33.4 C86.4900304,32.9068229 86.0931466,32.5054797 85.6,32.5 L84.47,32.5 C83.9768534,32.5054797 83.5799696,32.9068229 83.58,33.4 L83.58,38.8 C83.5800304,39.2931771 83.1831466,39.6945203 82.69,39.7 L73.89,39.7 C73.3968534,39.6945203 72.9999696,39.2931771 73,38.8 L73,36.1 C72.9999696,35.6068229 73.3968534,35.2054797 73.89,35.2 L77.89,35.2 C78.3831466,35.1945203 78.7800304,34.7931771 78.78,34.3 L78.78,28.9 C78.7799696,28.4068229 79.1768534,28.0054797 79.67,28 L90.23,28 C90.7231466,28.0054797 91.1200304,28.4068229 91.12,28.9 L91.16,34.31 Z" id="Fill-3" fill="#52A646"></path>
            <path d="M79.46,54.47 C78.9668534,54.4754797 78.5699696,54.8768229 78.57,55.37 L78.57,57.18 C78.57,57.6715334 78.1715334,58.07 77.68,58.07 L66.89,58.07 C66.3984666,58.07 66,57.6715334 66,57.18 L66,54.49 C65.9999696,53.9968229 66.3968534,53.5954797 66.89,53.59 L72.89,53.59 C73.3831466,53.5845203 73.7800304,53.1831771 73.78,52.69 L73.78,50.89 C73.7854069,50.4007237 74.1807237,50.0054069 74.67,50 L83.47,50 C83.9592763,50.0054069 84.3545931,50.4007237 84.36,50.89 L84.36,53.58 C84.3600304,54.0731771 83.9631466,54.4745203 83.47,54.48 L79.46,54.47 Z" id="Fill-5" fill="#52A646"></path>
            <path d="M40.73,11.38 C40.2368534,11.3854797 39.8399696,11.7868229 39.84,12.28 L39.84,17.68 C39.8400304,18.1731771 39.4431466,18.5745203 38.95,18.58 L35.89,18.58 C35.3968534,18.5745203 34.9999696,18.1731771 35,17.68 L35,7.87 C35.0160304,7.38855045 35.4083105,7.0050856 35.89,7 L52.45,7 C52.9431466,7.00547974 53.3400304,7.40682292 53.34,7.9 L53.34,10.51 C53.3400304,11.0031771 52.9431466,11.4045203 52.45,11.41 L40.73,11.38 Z" id="Fill-7" fill="#52A646"></path>
            <path d="M82.01,6.3 C82.0099696,6.79317708 82.4068534,7.19452026 82.9,7.2 L88.9,7.2 C89.3931466,7.20547974 89.7900304,7.60682292 89.79,8.1 L89.79,10.71 C89.7845931,11.1992763 89.3892763,11.5945931 88.9,11.6 L78.17,11.6 C77.6807237,11.5945931 77.2854069,11.1992763 77.28,10.71 L77.28,5.38 C77.2800304,4.88682292 76.8831466,4.48547974 76.39,4.48 L63.72,4.48 C63.2268534,4.48547974 62.8299696,4.88682292 62.83,5.38 L62.83,6.31 C62.8273331,6.54869919 62.9196058,6.77867979 63.0865164,6.94934113 C63.2534269,7.12000246 63.4813005,7.21736252 63.72,7.22 L69.6,7.22 C70.0931466,7.22547974 70.4900304,7.62682292 70.49,8.12 L70.49,13.42 C70.4954069,13.9092763 70.8907237,14.3045931 71.38,14.31 L90.72,14.31 C91.2131466,14.3154797 91.6100304,14.7168229 91.61,15.21 L91.61,25.09 C91.6100304,25.5831771 91.2131466,25.9845203 90.72,25.99 L87.72,25.99 C87.2268534,25.9845203 86.8299696,25.5831771 86.83,25.09 L86.83,19.69 C86.8300304,19.1968229 86.4331466,18.7954797 85.94,18.79 L66.56,18.79 C66.0668534,18.7845203 65.6699696,18.3831771 65.67,17.89 L65.67,12.49 C65.6700304,11.9968229 65.2731466,11.5954797 64.78,11.59 L58.89,11.59 C58.3984666,11.59 58,11.1915334 58,10.7 L58,0.9 C57.9999696,0.406822923 58.3968534,0.00547974437 58.89,0 L81.12,0 C81.6131466,0.00547974437 82.0100304,0.406822923 82.01,0.9 L82.01,6.3 Z" id="Fill-9" fill="#52A646"></path>
            <path d="M121.98,26.55 C121.98003,26.0568229 121.583147,25.6554797 121.09,25.65 L100.67,25.65 C100.176853,25.6554797 99.7799696,26.0568229 99.78,26.55 L99.78,31.89 C99.7800304,32.3831771 99.3831466,32.7845203 98.89,32.79 L95.89,32.79 C95.3968534,32.7845203 94.9999696,32.3831771 95,31.89 L95,22.07 C94.9999696,21.5768229 95.3968534,21.1754797 95.89,21.17 L105.72,21.17 C106.211533,21.17 106.61,20.7715334 106.61,20.28 L106.61,19.35 C106.61,18.8584666 106.211533,18.46 105.72,18.46 L97.87,18.46 C97.3768534,18.4545203 96.9799696,18.0531771 96.98,17.56 L96.98,14.89 C96.98,14.3984666 97.3784666,14 97.87,14 L110.46,14 C110.951533,14 111.35,14.3984666 111.35,14.89 L111.35,20.29 C111.355407,20.7792763 111.750724,21.1745931 112.24,21.18 L125.86,21.18 C126.353147,21.1854797 126.75003,21.5868229 126.75,22.08 L126.75,28.29 C126.744593,28.7792763 126.349276,29.1745931 125.86,29.18 L122.86,29.18 C122.370724,29.1745931 121.975407,28.7792763 121.97,28.29 L121.98,26.55 Z" id="Fill-11" fill="#52A646"></path>
            <path d="M129.65,37.38 C129.65003,36.8868229 129.253147,36.4854797 128.76,36.48 L122.89,36.48 C122.396853,36.4745203 121.99997,36.0731771 122,35.58 L122,32.9 C121.99997,32.4068229 122.396853,32.0054797 122.89,32 L133.58,32 C134.073147,32.0054797 134.47003,32.4068229 134.47,32.9 L134.47,46.3 C134.464593,46.7892763 134.069276,47.1845931 133.58,47.19 L130.58,47.19 C130.090724,47.1845931 129.695407,46.7892763 129.69,46.3 L129.65,37.38 Z" id="Fill-13" fill="#52A646"></path>
            <path d="M150.25,62.5 C150.25003,62.0068229 149.853147,61.6054797 149.36,61.6 L143.36,61.6 C142.866853,61.5945203 142.46997,61.1931771 142.47,60.7 L142.47,55.38 C142.47003,54.8868229 142.073147,54.4854797 141.58,54.48 L129.89,54.48 C129.400724,54.4745931 129.005407,54.0792763 129,53.59 L129,50.9 C128.99997,50.4068229 129.396853,50.0054797 129.89,50 L146.46,50 C146.953147,50.0054797 147.35003,50.4068229 147.35,50.9 L147.35,56.3 C147.34997,56.7931771 147.746853,57.1945203 148.24,57.2 L154.11,57.2 C154.599276,57.2054069 154.994593,57.6007237 155,58.09 L155,67.9 C155.00003,68.3931771 154.603147,68.7945203 154.11,68.8 L151.11,68.8 C150.616853,68.7945203 150.21997,68.3931771 150.22,67.9 L150.25,62.5 Z" id="Fill-15" fill="#52A646"></path>
            <path d="M140.67,70.43 C140.176853,70.4354797 139.77997,70.8368229 139.78,71.33 L139.78,74.9 C139.78003,75.3931771 139.383147,75.7945203 138.89,75.8 L135.89,75.8 C135.396853,75.7945203 134.99997,75.3931771 135,74.9 L135,66.9 C134.99997,66.4068229 135.396853,66.0054797 135.89,66 L146.67,66 C147.163147,66.0054797 147.56003,66.4068229 147.56,66.9 L147.56,69.59 C147.56003,70.0831771 147.163147,70.4845203 146.67,70.49 L140.67,70.43 Z" id="Fill-17" fill="#52A646"></path>
            <path d="M77.14,25.49 C76.6468534,25.4954797 76.2499696,25.8968229 76.25,26.39 L76.25,31.72 C76.25,32.2115334 75.8515334,32.61 75.36,32.61 L58.89,32.61 C58.4007237,32.6045931 58.0054069,32.2092763 58,31.72 L58,29.02 C57.9999696,28.5268229 58.3968534,28.1254797 58.89,28.12 L70.61,28.12 C71.1031466,28.1145203 71.5000304,27.7131771 71.5,27.22 L71.5,26.37 C71.5000304,25.8768229 71.1031466,25.4754797 70.61,25.47 L68.53,25.47 C68.0368534,25.4645203 67.6399696,25.0631771 67.64,24.57 L67.64,21.9 C67.6399696,21.4068229 68.0368534,21.0054797 68.53,21 L79.22,21 C79.7131466,21.0054797 80.1100304,21.4068229 80.11,21.9 L80.11,24.59 C80.1100304,25.0831771 79.7131466,25.4845203 79.22,25.49 L77.14,25.49 Z" id="Fill-19" fill="#52A646"></path>
            <path d="M121.8,76.1 C121.306853,76.1054797 120.90997,76.5068229 120.91,77 L120.91,82.4 C120.91003,82.8931771 120.513147,83.2945203 120.02,83.3 L117.02,83.3 C116.526853,83.2945203 116.12997,82.8931771 116.13,82.4 L116.13,72.59 C116.12997,72.0968229 116.526853,71.6954797 117.02,71.69 L126.77,71.69 C127.259276,71.6845931 127.654593,71.2892763 127.66,70.8 L127.66,69.88 C127.654593,69.3907237 127.259276,68.9954069 126.77,68.99 L111.22,68.99 C110.726853,68.9845203 110.32997,68.5831771 110.33,68.09 L110.33,55.57 C110.33003,55.0768229 109.933147,54.6754797 109.44,54.67 L108.39,54.67 C107.896853,54.6754797 107.49997,55.0768229 107.5,55.57 L107.5,70.81 C107.494593,71.2992763 107.099276,71.6945931 106.61,71.7 L95.81,71.7 C95.3207237,71.6945931 94.9254069,71.2992763 94.92,70.81 L94.92,59.16 C94.9099262,58.6859118 94.5337314,58.3009683 94.06,58.28 L88.18,58.28 C87.6907237,58.2745931 87.2954069,57.8792763 87.29,57.39 L87.29,48.39 C87.29,47.8984666 86.8915334,47.5 86.4,47.5 L66.89,47.5 C66.3968534,47.4945203 65.9999696,47.0931771 66,46.6 L66,43.9 C65.9999696,43.4068229 66.3968534,43.0054797 66.89,43 L91.06,43 C91.5531466,43.0054797 91.9500304,43.4068229 91.95,43.9 L91.95,52.9 C91.9499696,53.3931771 92.3468534,53.7945203 92.84,53.8 L98.84,53.8 C99.3331466,53.8054797 99.7300304,54.2068229 99.73,54.7 L99.73,65.86 C99.7354069,66.3492763 100.130724,66.7445931 100.62,66.75 L101.76,66.75 C101.996043,66.75 102.222418,66.6562324 102.389325,66.489325 C102.556232,66.3224177 102.65,66.0960427 102.65,65.86 L102.65,51.09 C102.655407,50.6007237 103.050724,50.2054069 103.54,50.2 L118.11,50.2 C118.601533,50.2 119,50.5984666 119,51.09 L119,53.78 C119.00003,54.2731771 118.603147,54.6745203 118.11,54.68 L116.06,54.68 C115.566853,54.6854797 115.16997,55.0868229 115.17,55.58 L115.17,63.58 C115.16997,64.0731771 115.566853,64.4745203 116.06,64.48 L131.65,64.48 C132.141533,64.48 132.54,64.8784666 132.54,65.37 L132.54,75.18 C132.54003,75.6731771 132.143147,76.0745203 131.65,76.08 L121.8,76.1 Z" id="Fill-21" fill="#52A646"></path>
            <path d="M138.45,85.6 C137.956853,85.6054797 137.55997,86.0068229 137.56,86.5 L137.56,97.26 C137.56003,97.7531771 137.163147,98.1545203 136.67,98.16 L133.67,98.16 C133.176853,98.1545203 132.77997,97.7531771 132.78,97.26 L132.78,86.53 C132.78003,86.0368229 132.383147,85.6354797 131.89,85.63 L125.89,85.63 C125.396853,85.6245203 124.99997,85.2231771 125,84.73 L125,82.02 C124.99997,81.5268229 125.396853,81.1254797 125.89,81.12 L143.38,81.12 C143.871533,81.12 144.27,80.7215334 144.27,80.23 L144.27,74.9 C144.26997,74.4068229 144.666853,74.0054797 145.16,74 L148.16,74 C148.653147,74.0054797 149.05003,74.4068229 149.05,74.9 L149.05,84.71 C149.05003,85.2031771 148.653147,85.6045203 148.16,85.61 L138.45,85.6 Z" id="Fill-23" fill="#52A646"></path>
            <path d="M146.76,92.67 C146.266853,92.6754797 145.86997,93.0768229 145.87,93.57 L145.87,94.41 C145.86997,94.9031771 146.266853,95.3045203 146.76,95.31 L160.38,95.31 C160.869276,95.3154069 161.264593,95.7107237 161.27,96.2 L161.27,106.09 C161.27003,106.583177 160.873147,106.98452 160.38,106.99 L151.58,106.99 C151.086853,106.98452 150.68997,106.583177 150.69,106.09 L150.69,103.41 C150.68997,102.916823 151.086853,102.51548 151.58,102.51 L155.58,102.51 C156.069276,102.504593 156.464593,102.109276 156.47,101.62 L156.47,100.69 C156.47003,100.196823 156.073147,99.7954797 155.58,99.79 L146.78,99.79 C146.286853,99.7954797 145.88997,100.196823 145.89,100.69 L145.89,106.09 C145.89003,106.583177 145.493147,106.98452 145,106.99 L139,106.99 C138.508467,106.99 138.11,107.388467 138.11,107.88 L138.11,108.81 C138.10997,109.303177 138.506853,109.70452 139,109.71 L156.49,109.71 C156.983147,109.71548 157.38003,110.116823 157.38,110.61 L157.38,113.22 C157.38003,113.713177 156.983147,114.11452 156.49,114.12 L134.28,114.12 C133.786853,114.11452 133.38997,113.713177 133.39,113.22 L133.39,107.89 C133.384593,107.400724 132.989276,107.005407 132.5,107 L126.5,107 C126.006853,106.99452 125.60997,106.593177 125.61,106.1 L125.61,100.7 C125.61003,100.206823 125.213147,99.8054797 124.72,99.8 L113.89,99.8 C113.396853,99.7945203 112.99997,99.3931771 113,98.9 L113,89.09 C113,88.5984666 113.398467,88.2 113.89,88.2 L125.69,88.2 C126.179276,88.2054069 126.574593,88.6007237 126.58,89.09 L126.58,91.78 C126.58003,92.2731771 126.183147,92.6745203 125.69,92.68 L118.76,92.68 C118.266853,92.6854797 117.86997,93.0868229 117.87,93.58 L117.87,94.41 C117.86997,94.9031771 118.266853,95.3045203 118.76,95.31 L129.56,95.31 C130.049276,95.3154069 130.444593,95.7107237 130.45,96.2 L130.45,101.61 C130.45,102.101533 130.848467,102.5 131.34,102.5 L140.14,102.5 C140.629276,102.494593 141.024593,102.099276 141.03,101.61 L141.03,89.09 C141.03,88.5984666 141.428467,88.2 141.92,88.2 L151.75,88.2 C152.243147,88.1945203 152.64003,87.7931771 152.64,87.3 L152.64,81.9 C152.63997,81.4068229 153.036853,81.0054797 153.53,81 L156.53,81 C157.023147,81.0054797 157.42003,81.4068229 157.42,81.9 L157.42,91.78 C157.42003,92.2731771 157.023147,92.6745203 156.53,92.68 L146.76,92.67 Z" id="Fill-25" fill="#52A646"></path>
            <path d="M13.63,40.48 C13.1368534,40.4854797 12.7399696,40.8868229 12.74,41.38 L12.74,42.23 C12.7399696,42.7231771 13.1368534,43.1245203 13.63,43.13 L23.46,43.13 C23.9531466,43.1354797 24.3500304,43.5368229 24.35,44.03 L24.35,49.4 C24.3499696,49.8931771 24.7468534,50.2945203 25.24,50.3 L34.04,50.3 C34.5331466,50.2945203 34.9300304,49.8931771 34.93,49.4 L34.93,36.9 C34.9298792,36.4106506 35.3207714,36.0108744 35.81,36 L38.81,36 C39.3015334,36 39.7,36.3984666 39.7,36.89 L39.7,42.22 C39.6999696,42.7131771 40.0968534,43.1145203 40.59,43.12 L54.27,43.12 C54.7631466,43.1254797 55.1600304,43.5268229 55.16,44.02 L55.16,53.9 C55.1600304,54.3931771 54.7631466,54.7945203 54.27,54.8 L47.37,54.8 C46.8768534,54.7945203 46.4799696,54.3931771 46.48,53.9 L46.48,51.21 C46.4799696,50.7168229 46.8768534,50.3154797 47.37,50.31 L49.45,50.31 C49.9431466,50.3045203 50.3400304,49.9031771 50.34,49.41 L50.34,48.48 C50.3400304,47.9868229 49.9431466,47.5854797 49.45,47.58 L40.65,47.58 C40.1568534,47.5854797 39.7599696,47.9868229 39.76,48.48 L39.76,53.88 C39.7600304,54.3731771 39.3631466,54.7745203 38.87,54.78 L25.25,54.78 C24.7568534,54.7854797 24.3599696,55.1868229 24.36,55.68 L24.36,59.25 C24.3600304,59.7431771 23.9631466,60.1445203 23.47,60.15 L20.47,60.15 C19.9768534,60.1445203 19.5799696,59.7431771 19.58,59.25 L19.58,48.49 C19.5800304,47.9968229 19.1831466,47.5954797 18.69,47.59 L8.89,47.59 C8.39685337,47.5845203 7.99996956,47.1831771 8,46.69 L8,36.9 C8.00540686,36.4107237 8.40072367,36.0154069 8.89,36.01 L31.12,36.01 C31.6115334,36.01 32.01,36.4084666 32.01,36.9 L32.01,39.59 C32.0100304,40.0831771 31.6131466,40.4845203 31.12,40.49 L13.63,40.48 Z" id="Fill-27" fill="#52A646"></path>
            <path d="M62.82,60.02 C62.8199696,60.5131771 63.2168534,60.9145203 63.71,60.92 L69.58,60.92 C70.0731466,60.9254797 70.4700304,61.3268229 70.47,61.82 L70.47,64.51 C70.4700304,65.0031771 70.0731466,65.4045203 69.58,65.41 L58.89,65.41 C58.3968534,65.4045203 57.9999696,65.0031771 58,64.51 L58,43.9 C57.9999696,43.4068229 58.3968534,43.0054797 58.89,43 L61.89,43 C62.3831466,43.0054797 62.7800304,43.4068229 62.78,43.9 L62.82,60.02 Z" id="Fill-29" fill="#52A646"></path>
            <path d="M13.67,54.47 C13.1768534,54.4754797 12.7799696,54.8768229 12.78,55.37 L12.78,64.3 C12.7800304,64.7931771 12.3831466,65.1945203 11.89,65.2 L8.89,65.2 C8.39685337,65.1945203 7.99996956,64.7931771 8,64.3 L8,50.89 C8.00540686,50.4007237 8.40072367,50.0054069 8.89,50 L15.71,50 C16.1992763,50.0054069 16.5945931,50.4007237 16.6,50.89 L16.6,53.58 C16.6000304,54.0731771 16.2031466,54.4745203 15.71,54.48 L13.67,54.47 Z" id="Fill-31" fill="#52A646"></path>
            <path d="M4.82,66.83 C4.81996956,67.3231771 5.21685337,67.7245203 5.71,67.73 L14.55,67.73 C15.0431466,67.7245203 15.4400304,67.3231771 15.44,66.83 L15.44,65.02 C15.4399696,64.5268229 15.8368534,64.1254797 16.33,64.12 L29.91,64.12 C30.4015334,64.12 30.8,63.7215334 30.8,63.23 L30.8,57.9 C30.7999696,57.4068229 31.1968534,57.0054797 31.69,57 L54.01,57 C54.5031466,57.0054797 54.9000304,57.4068229 54.9,57.9 L54.9,66.83 C54.8999696,67.3231771 55.2968534,67.7245203 55.79,67.73 L61.79,67.73 C62.2831466,67.7354797 62.6800304,68.1368229 62.68,68.63 L62.68,71.32 C62.6800304,71.8131771 62.2831466,72.2145203 61.79,72.22 L50.98,72.22 C50.4868534,72.2145203 50.0899696,71.8131771 50.09,71.32 L50.09,69.5 C50.0900304,69.0068229 49.6931466,68.6054797 49.2,68.6 L43.32,68.6 C42.8307237,68.5945931 42.4354069,68.1992763 42.43,67.71 L42.43,65.02 C42.4299696,64.5268229 42.8268534,64.1254797 43.32,64.12 L49.19,64.12 C49.6792763,64.1145931 50.0745931,63.7192763 50.08,63.23 L50.08,62.3 C50.0745931,61.8107237 49.6792763,61.4154069 49.19,61.41 L36.55,61.41 C36.0607237,61.4154069 35.6654069,61.8107237 35.66,62.3 L35.66,74.83 C35.6600304,75.3231771 35.2631466,75.7245203 34.77,75.73 L28.86,75.73 C28.3684666,75.73 27.97,76.1284666 27.97,76.62 L27.97,82.03 C27.9700304,82.5231771 27.5731466,82.9245203 27.08,82.93 L13.37,82.93 C12.8768534,82.9354797 12.4799696,83.3368229 12.48,83.83 L12.48,85.64 C12.4800304,86.1331771 12.0831466,86.5345203 11.59,86.54 L8.59,86.54 C8.09685337,86.5345203 7.69996956,86.1331771 7.7,85.64 L7.7,75.74 C7.69996956,75.2468229 8.09685337,74.8454797 8.59,74.84 L11.59,74.84 C12.0831466,74.8454797 12.4800304,75.2468229 12.48,75.74 L12.48,77.55 C12.4854069,78.0392763 12.8807237,78.4345931 13.37,78.44 L22.25,78.44 C22.7392763,78.4345931 23.1345931,78.0392763 23.14,77.55 L23.14,72.22 C23.1399696,71.7268229 23.5368534,71.3254797 24.03,71.32 L29.91,71.32 C30.4031466,71.3145203 30.8000304,70.9131771 30.8,70.42 L30.8,69.5 C30.8000304,69.0068229 30.4031466,68.6054797 29.91,68.6 L21.11,68.6 C20.6168534,68.6054797 20.2199696,69.0068229 20.22,69.5 L20.22,71.31 C20.2200304,71.8031771 19.8231466,72.2045203 19.33,72.21 L0.89,72.21 C0.396853366,72.2045203 -3.04439587e-05,71.8031771 0,71.31 L0,57.9 C-3.04439587e-05,57.4068229 0.396853366,57.0054797 0.89,57 L3.89,57 C4.38314663,57.0054797 4.78003044,57.4068229 4.78,57.9 L4.82,66.83 Z" id="Fill-33" fill="#52A646"></path>
            <path d="M91.02,61 L91.02,64.58 C91.0145931,65.0692763 90.6192763,65.4645931 90.13,65.47 L76.89,65.47 C76.3984666,65.47 76,65.0715334 76,64.58 L76,61" id="Fill-35" fill="#52A646"></path>
            <path d="M127.072385,110.06 C127.072385,109.67 117.822385,108.58 111.992385,106.74 C108.745924,105.765021 105.598655,104.486024 102.592385,102.92 C101.182385,102.18 102.122385,100.62 102.662385,100.05 C104.662385,97.91 109.602385,94.35 109.292385,93.89 C108.982385,93.43 103.532385,97.63 99.4623846,100.14 C98.7806953,100.563562 97.948401,100.669424 97.1823846,100.43 C86.7223846,97.2 73.3523846,93.35 73.3523846,87.77 C73.3523846,82.19 81.7623846,81.08 93.7523846,81.27 C97.7523846,81.33 105.392385,78.97 108.342385,77.59 C108.542385,77.5 108.482385,77.16 108.262385,77.23 C103.972385,78.58 97.5323846,80.17 92.3423846,79.53 C83.4223846,78.43 81.8123846,77.77 78.8423846,78.6 C78.3823846,78.73 78.1123846,78.25 78.3323846,77.82 C79.6323846,75.28 82.4023846,72.69 88.4523846,70.44 C88.6323846,70.37 88.4523846,70.13 88.3123846,70.16 C82.9223846,71.06 77.1023846,72.6 74.3623846,75.41 C74.2620257,75.4919576 74.1245995,75.5117646 74.0051811,75.4614832 C73.8857628,75.4112018 73.803894,75.29906 73.7923846,75.17 C73.4223846,71.17 68.1723846,69.31 66.6323846,69 C66.4823846,69 66.3323846,69.12 66.4623846,69.2 C68.6023846,70.51 72.6623846,74.44 70.2423846,78.2 C63.9723846,88.07 52.2423846,89.98 50.0823846,98.61 C48.2323846,106.04 66.4823846,117.8 66.4823846,124.68 C66.4823846,135.08 45.4823846,141.29 45.4823846,141.29 C45.1278217,141.456868 44.9357438,141.846726 45.0194846,142.229541 C45.1032253,142.612356 45.4405339,142.88641 45.8323846,142.89 L111.942385,142.89 C112.30298,142.916517 112.652219,142.757402 112.868836,142.467905 C113.085454,142.178407 113.139566,141.798462 113.012385,141.46 C108.012385,123.68 73.0123846,111.85 65.7923846,105.38 C63.9823846,103.75 62.5523846,101.97 63.5723846,99.75 C66.9923846,92.32 100.832385,106.92 114.402385,109.32 C117.292385,109.83 127.032385,110.39 127.032385,110.01" id="Fill-37" fill="#473A4B"></path>
            <path d="M55.09,87.7421297 C52.09,84.6521297 45.35,78.8621297 43.23,77.0521297 C43.1978461,77.0128304 43.1471688,76.9936704 43.0970577,77.0018669 C43.0469466,77.0100634 43.0050149,77.0443712 42.9870577,77.0918669 C42.9691005,77.1393626 42.9778461,77.1928304 43.01,77.2321297 C44.67,80.1021297 46.69,83.8721297 47.68,85.4721297 C47.7707772,85.6152737 47.7734181,85.7972835 47.6868323,85.9430011 C47.6002465,86.0887186 47.4391249,86.1734202 47.27,86.1621297 C44.4,86.0021297 37.92,85.7921297 34.17,85.6821297 C34.0761116,85.6821297 34,85.7582413 34,85.8521297 C34,85.9460181 34.0761116,86.0221297 34.17,86.0221297 C40.139541,87.0576591 45.9799826,88.7340201 51.59,91.0221297 C51.8944025,91.1517125 52.2447287,91.1098256 52.51,90.9121297 C53.29,90.3221297 54.12,89.7421297 54.99,89.1521297 C55.208045,89.0021053 55.34997,88.7645838 55.3787765,88.5014848 C55.4075829,88.2383857 55.3204163,87.9757812 55.14,87.7821297" id="Fill-39" fill="#473A4B"></path>
            <path d="M114.027076,156.66 C118.647076,156.66 122.487076,152.58 123.027076,147.34 C123.067014,147.000008 122.959844,146.659144 122.732531,146.403178 C122.505218,146.147212 122.179405,146.000515 121.837076,146 L37.1870755,146 C36.8484447,146.003649 36.5271206,146.150211 36.30237,146.403532 C36.0776194,146.656852 35.9703687,146.993345 36.0070755,147.33 C36.5770755,152.57 40.4070755,156.65 45.0070755,156.65 L114.027076,156.66 Z" id="Fill-41" fill="#473A4B"></path>
        </g>
    </g>
</svg>